<?xml version="1.0" encoding="UTF-8" standalone="no"?>
<!-- Created with Inkscape (http://www.inkscape.org/) -->

<svg
    version="1.1"
    id="svg3176"
    width="880"
    height="880"
    viewBox="0 0 880 880"
    sodipodi:docname="nature-forest-publicdomainvectors.org.svg"
    inkscape:version="1.2 (dc2aedaf03, 2022-05-15)"
    xmlns:inkscape="http://www.inkscape.org/namespaces/inkscape"
    xmlns:sodipodi="http://sodipodi.sourceforge.net/DTD/sodipodi-0.dtd"
    xmlns="http://www.w3.org/2000/svg"
    xmlns:svg="http://www.w3.org/2000/svg">
    <defs
        id="defs3180">
        <clipPath
            clipPathUnits="userSpaceOnUse"
            id="clipPath3206">
            <path
                d="M 0,660 H 660 V 0 H 0 Z"
                id="path3204" />
        </clipPath>
    </defs>
    <sodipodi:namedview
        id="namedview3178"
        pagecolor="#ffffff"
        bordercolor="#000000"
        borderopacity="0.25"
        inkscape:showpageshadow="2"
        inkscape:pageopacity="0.0"
        inkscape:pagecheckerboard="0"
        inkscape:deskcolor="#d1d1d1"
        showgrid="false"
        inkscape:zoom="0.95113636"
        inkscape:cx="440.52569"
        inkscape:cy="440.52569"
        inkscape:window-width="1920"
        inkscape:window-height="1017"
        inkscape:window-x="-8"
        inkscape:window-y="-8"
        inkscape:window-maximized="1"
        inkscape:current-layer="g3184">
        <inkscape:page
            x="0"
            y="0"
            id="page3182"
            width="880"
            height="880" />
    </sodipodi:namedview>
    <g
        id="g3184"
        inkscape:groupmode="layer"
        inkscape:label="Page 1"
        transform="matrix(1.3333333,0,0,-1.3333333,0,880)">
        <path
            d="M 0,0 H 660 V 660 H 0 Z"
            style="fill:#b6ebf5;fill-opacity:1;fill-rule:nonzero;stroke:none"
            id="path3186" />
        <g
            id="g3188"
            transform="translate(265.8438,140.967)">
            <path
                d="m 0,0 v -140.967 h 394.156 v 353.02 l -43.569,34.497 z"
                style="fill:#9edeeb;fill-opacity:1;fill-rule:nonzero;stroke:none"
                id="path3190" />
        </g>
        <g
            id="g3192"
            transform="translate(0,379.1812)">
            <path
                d="m 0,0 v -379.181 h 394.233 v 190.892 L 82.845,58.261 Z"
                style="fill:#9edeeb;fill-opacity:1;fill-rule:nonzero;stroke:none"
                id="path3194" />
        </g>
        <g
            id="g3196"
            transform="translate(0,224.1742)">
            <path
                d="M 0,0 V -224.174 H 660 V 1.375 L 350.462,246.461 Z"
                style="fill:#81cede;fill-opacity:1;fill-rule:nonzero;stroke:none"
                id="path3198" />
        </g>
        <g
            id="g3200">
            <g
                id="g3202"
                clip-path="url(#clipPath3206)">
                <g
                    id="g3208"
                    transform="translate(228.8979,243.7705)">
                    <path
                        d="m 0,0 c 7.162,0 12.969,-28.617 12.969,-35.781 0,-7.161 -5.807,-12.968 -12.969,-12.968 -7.162,0 -12.969,5.807 -12.969,12.968 C -12.969,-28.617 -7.162,0 0,0"
                        style="fill:#8ce1f2;fill-opacity:1;fill-rule:evenodd;stroke:none"
                        id="path3210" />
                </g>
                <g
                    id="g3212"
                    transform="translate(228.8979,222.9775)">
                    <path
                        d="M 0,0 1.472,-18.849 2.941,-37.7 H 0 -2.941 l 1.471,18.851 z"
                        style="fill:#8ce1f2;fill-opacity:1;fill-rule:evenodd;stroke:none"
                        id="path3214" />
                </g>
                <g
                    id="g3216"
                    transform="translate(228.8979,243.7705)">
                    <path
                        d="m 0,0 c 7.162,0 12.969,-28.617 12.969,-35.781 0,-2.237 -0.567,-4.344 -1.566,-6.181 0.408,1.258 0.628,2.601 0.628,3.995 0,7.161 -5.806,35.781 -12.968,35.781 -2.186,0 -4.246,-2.671 -6.054,-6.581 C -4.974,-3.697 -2.574,0 0,0"
                        style="fill:#8ce1f2;fill-opacity:1;fill-rule:evenodd;stroke:none"
                        id="path3218" />
                </g>
                <g
                    id="g3220"
                    transform="translate(295.897,236.4111)">
                    <path
                        d="m 0,0 c 7.162,0 12.967,-28.617 12.967,-35.78 0,-7.162 -5.805,-12.968 -12.967,-12.968 -7.164,0 -12.969,5.806 -12.969,12.968 C -12.969,-28.617 -7.164,0 0,0"
                        style="fill:#8ce1f2;fill-opacity:1;fill-rule:evenodd;stroke:none"
                        id="path3222" />
                </g>
                <g
                    id="g3224"
                    transform="translate(295.897,215.6191)">
                    <path
                        d="M 0,0 1.47,-18.852 2.941,-37.701 H 0 -2.943 l 1.472,18.849 z"
                        style="fill:#8ce1f2;fill-opacity:1;fill-rule:evenodd;stroke:none"
                        id="path3226" />
                </g>
                <g
                    id="g3228"
                    transform="translate(295.897,236.4111)">
                    <path
                        d="m 0,0 c 7.162,0 12.967,-28.617 12.967,-35.78 0,-2.238 -0.567,-4.345 -1.565,-6.182 0.407,1.258 0.629,2.601 0.629,3.993 0,7.163 -5.806,35.781 -12.968,35.781 -2.188,0 -4.248,-2.668 -6.054,-6.579 C -4.976,-3.697 -2.575,0 0,0"
                        style="fill:#8ce1f2;fill-opacity:1;fill-rule:evenodd;stroke:none"
                        id="path3230" />
                </g>
                <g
                    id="g3232"
                    transform="translate(403.7725,229.6689)">
                    <path
                        d="m 0,0 c 7.163,0 12.969,-28.618 12.969,-35.781 0,-7.162 -5.806,-12.968 -12.969,-12.968 -7.162,0 -12.968,5.806 -12.968,12.968 C -12.968,-28.618 -7.162,0 0,0"
                        style="fill:#8ce1f2;fill-opacity:1;fill-rule:evenodd;stroke:none"
                        id="path3234" />
                </g>
                <g
                    id="g3236"
                    transform="translate(403.7725,208.876)">
                    <path
                        d="M 0,0 1.47,-18.852 2.94,-37.701 H 0 -2.941 l 1.47,18.849 z"
                        style="fill:#8ce1f2;fill-opacity:1;fill-rule:evenodd;stroke:none"
                        id="path3238" />
                </g>
                <g
                    id="g3240"
                    transform="translate(403.7725,229.6689)">
                    <path
                        d="m 0,0 c 7.163,0 12.969,-28.618 12.969,-35.781 0,-2.238 -0.568,-4.344 -1.566,-6.181 0.408,1.258 0.627,2.6 0.627,3.994 0,7.161 -5.805,35.781 -12.967,35.781 -2.187,0 -4.247,-2.67 -6.054,-6.581 C -4.974,-3.697 -2.575,0 0,0"
                        style="fill:#8ce1f2;fill-opacity:1;fill-rule:evenodd;stroke:none"
                        id="path3242" />
                </g>
                <g
                    id="g3244"
                    transform="translate(270.7471,275.0645)">
                    <path
                        d="m 0,0 c 11.642,0 21.08,-46.517 21.08,-58.157 0,-11.643 -9.438,-21.08 -21.08,-21.08 -11.643,0 -21.08,9.437 -21.08,21.08 C -21.08,-46.517 -11.643,0 0,0"
                        style="fill:#5dadbd;fill-opacity:1;fill-rule:evenodd;stroke:none"
                        id="path3246" />
                </g>
                <g
                    id="g3248"
                    transform="translate(270.7471,241.2686)">
                    <path
                        d="M 0,0 2.39,-30.641 4.781,-61.28 H 0 -4.781 l 2.39,30.639 z"
                        style="fill:#5dadbd;fill-opacity:1;fill-rule:evenodd;stroke:none"
                        id="path3250" />
                </g>
                <g
                    id="g3252"
                    transform="translate(270.7471,275.0645)">
                    <path
                        d="m 0,0 c 11.642,0 21.08,-46.517 21.08,-58.157 0,-3.639 -0.922,-7.061 -2.545,-10.049 0.66,2.046 1.02,4.227 1.02,6.493 0,11.643 -9.437,58.159 -21.078,58.159 -3.556,0 -6.903,-4.342 -9.841,-10.697 C -8.083,-6.009 -4.184,0 0,0"
                        style="fill:#5dadbd;fill-opacity:1;fill-rule:evenodd;stroke:none"
                        id="path3254" />
                </g>
                <g
                    id="g3256"
                    transform="translate(367.7695,265.4043)">
                    <path
                        d="m 0,0 c 11.643,0 21.078,-46.517 21.078,-58.157 0,-11.643 -9.435,-21.08 -21.078,-21.08 -11.642,0 -21.079,9.437 -21.079,21.08 C -21.079,-46.517 -11.642,0 0,0"
                        style="fill:#5dadbd;fill-opacity:1;fill-rule:evenodd;stroke:none"
                        id="path3258" />
                </g>
                <g
                    id="g3260"
                    transform="translate(367.7695,231.6084)">
                    <path
                        d="M 0,0 2.391,-30.641 4.781,-61.28 H 0 -4.781 l 2.39,30.639 z"
                        style="fill:#5dadbd;fill-opacity:1;fill-rule:evenodd;stroke:none"
                        id="path3262" />
                </g>
                <g
                    id="g3264"
                    transform="translate(367.7695,265.4043)">
                    <path
                        d="m 0,0 c 11.643,0 21.078,-46.517 21.078,-58.157 0,-3.639 -0.92,-7.061 -2.542,-10.049 0.661,2.046 1.02,4.227 1.02,6.493 0,11.641 -9.438,58.157 -21.08,58.157 -3.554,0 -6.902,-4.339 -9.839,-10.695 C -8.085,-6.011 -4.185,0 0,0"
                        style="fill:#5dadbd;fill-opacity:1;fill-rule:evenodd;stroke:none"
                        id="path3266" />
                </g>
                <g
                    id="g3268"
                    transform="translate(321.1855,284.5146)">
                    <path
                        d="m 0,0 c 12.838,0 23.246,-51.299 23.246,-64.137 0,-12.838 -10.408,-23.247 -23.246,-23.247 -12.838,0 -23.247,10.409 -23.247,23.247 C -23.247,-51.299 -12.838,0 0,0"
                        style="fill:#5dadbd;fill-opacity:1;fill-rule:evenodd;stroke:none"
                        id="path3270" />
                </g>
                <g
                    id="g3272"
                    transform="translate(321.1855,247.2432)">
                    <path
                        d="M 0,0 2.637,-33.79 5.273,-67.579 H 0 -5.272 l 2.635,33.789 z"
                        style="fill:#5dadbd;fill-opacity:1;fill-rule:evenodd;stroke:none"
                        id="path3274" />
                </g>
                <g
                    id="g3276"
                    transform="translate(321.1855,284.5146)">
                    <path
                        d="m 0,0 c 12.838,0 23.246,-51.299 23.246,-64.137 0,-4.012 -1.016,-7.788 -2.806,-11.082 0.729,2.256 1.126,4.662 1.126,7.161 0,12.839 -10.409,64.137 -23.248,64.137 -3.919,0 -7.61,-4.786 -10.85,-11.795 C -8.916,-6.629 -4.616,0 0,0"
                        style="fill:#5dadbd;fill-opacity:1;fill-rule:evenodd;stroke:none"
                        id="path3278" />
                </g>
                <g
                    id="g3280"
                    transform="translate(634.8672,294.6318)">
                    <path
                        d="m 0,0 c 12.839,0 23.245,-51.299 23.245,-64.138 0,-12.838 -10.406,-23.246 -23.245,-23.246 -12.838,0 -23.246,10.408 -23.246,23.246 C -23.246,-51.299 -12.838,0 0,0"
                        style="fill:#5dadbd;fill-opacity:1;fill-rule:evenodd;stroke:none"
                        id="path3282" />
                </g>
                <g
                    id="g3284"
                    transform="translate(634.8672,257.3613)">
                    <path
                        d="M 0,0 2.637,-33.791 5.272,-67.58 H 0 -5.273 l 2.637,33.789 z"
                        style="fill:#5dadbd;fill-opacity:1;fill-rule:evenodd;stroke:none"
                        id="path3286" />
                </g>
                <g
                    id="g3288"
                    transform="translate(634.8672,294.6318)">
                    <path
                        d="m 0,0 c 12.839,0 23.245,-51.299 23.245,-64.138 0,-4.011 -1.015,-7.786 -2.804,-11.08 0.73,2.256 1.124,4.661 1.124,7.16 0,12.837 -10.408,64.137 -23.245,64.137 -3.921,0 -7.613,-4.786 -10.85,-11.796 C -8.916,-6.629 -4.614,0 0,0"
                        style="fill:#5dadbd;fill-opacity:1;fill-rule:evenodd;stroke:none"
                        id="path3290" />
                </g>
                <g
                    id="g3292"
                    transform="translate(492.7031,280.9824)">
                    <path
                        d="m 0,0 c 12.838,0 23.246,-51.299 23.246,-64.137 0,-12.839 -10.408,-23.247 -23.246,-23.247 -12.838,0 -23.246,10.408 -23.246,23.247 C -23.246,-51.299 -12.838,0 0,0"
                        style="fill:#5dadbd;fill-opacity:1;fill-rule:evenodd;stroke:none"
                        id="path3294" />
                </g>
                <g
                    id="g3296"
                    transform="translate(492.7031,243.7119)">
                    <path
                        d="M 0,0 2.637,-33.791 5.272,-67.58 H 0 -5.272 l 2.636,33.789 z"
                        style="fill:#5dadbd;fill-opacity:1;fill-rule:evenodd;stroke:none"
                        id="path3298" />
                </g>
                <g
                    id="g3300"
                    transform="translate(492.7031,280.9824)">
                    <path
                        d="m 0,0 c 12.838,0 23.246,-51.299 23.246,-64.137 0,-4.012 -1.016,-7.787 -2.807,-11.081 0.732,2.255 1.127,4.661 1.127,7.16 0,12.839 -10.408,64.137 -23.246,64.137 -3.92,0 -7.612,-4.786 -10.852,-11.794 C -8.916,-6.629 -4.614,0 0,0"
                        style="fill:#5dadbd;fill-opacity:1;fill-rule:evenodd;stroke:none"
                        id="path3302" />
                </g>
                <g
                    id="g3304"
                    transform="translate(29.3467,299.9043)">
                    <path
                        d="m 0,0 c 12.838,0 23.246,-51.299 23.246,-64.136 0,-12.84 -10.408,-23.246 -23.246,-23.246 -12.838,0 -23.246,10.406 -23.246,23.246 C -23.246,-51.299 -12.838,0 0,0"
                        style="fill:#5dadbd;fill-opacity:1;fill-rule:evenodd;stroke:none"
                        id="path3306" />
                </g>
                <g
                    id="g3308"
                    transform="translate(29.3467,262.6338)">
                    <path
                        d="M 0,0 2.636,-33.791 5.272,-67.58 H 0 -5.272 l 2.636,33.789 z"
                        style="fill:#5dadbd;fill-opacity:1;fill-rule:evenodd;stroke:none"
                        id="path3310" />
                </g>
                <g
                    id="g3312"
                    transform="translate(29.3467,299.9043)">
                    <path
                        d="m 0,0 c 12.838,0 23.246,-51.299 23.246,-64.136 0,-4.013 -1.016,-7.786 -2.805,-11.082 0.729,2.257 1.124,4.661 1.124,7.16 0,12.839 -10.407,64.137 -23.246,64.137 -3.919,0 -7.611,-4.786 -10.851,-11.795 C -8.915,-6.628 -4.615,0 0,0"
                        style="fill:#5dadbd;fill-opacity:1;fill-rule:evenodd;stroke:none"
                        id="path3314" />
                </g>
                <g
                    id="g3316"
                    transform="translate(-0.126,203.457)">
                    <path
                        d="m 0,0 661.975,-46.678 v -157.93 H 0 Z"
                        style="fill:#bad526;fill-opacity:1;fill-rule:evenodd;stroke:none"
                        id="path3318" />
                </g>
                <g
                    id="g3320"
                    transform="translate(441.1387,319.1191)">
                    <path
                        d="m 0,0 c -18.903,0 -34.227,-75.531 -34.227,-94.434 0,-18.902 15.324,-34.226 34.227,-34.226 18.901,0 34.226,15.324 34.226,34.226 C 34.226,-75.531 18.901,0 0,0"
                        style="fill:#82970a;fill-opacity:1;fill-rule:evenodd;stroke:none"
                        id="path3322" />
                </g>
                <g
                    id="g3324"
                    transform="translate(441.1387,264.2412)">
                    <path
                        d="M 0,0 -3.882,-49.75 -7.765,-99.502 H 0 7.763 L 3.881,-49.75 Z"
                        style="fill:#bd591e;fill-opacity:1;fill-rule:evenodd;stroke:none"
                        id="path3326" />
                </g>
                <g
                    id="g3328"
                    transform="translate(441.1387,319.1191)">
                    <path
                        d="m 0,0 c -18.903,0 -34.227,-75.531 -34.227,-94.434 0,-5.908 1.497,-11.465 4.13,-16.314 -1.074,3.321 -1.656,6.863 -1.656,10.542 0,18.901 15.324,94.433 34.226,94.433 5.772,0 11.209,-7.048 15.978,-17.367 C 13.126,-9.76 6.795,0 0,0"
                        style="fill:#adc718;fill-opacity:1;fill-rule:evenodd;stroke:none"
                        id="path3330" />
                </g>
                <g
                    id="g3332"
                    transform="translate(-0.126,205.5293)">
                    <path
                        d="M 0,0 661.975,-46.677 V -77.795 L 0,-7.391 Z"
                        style="fill:#daed70;fill-opacity:1;fill-rule:evenodd;stroke:none"
                        id="path3334" />
                </g>
                <g
                    id="g3336"
                    transform="translate(77.4473,320.2246)">
                    <path
                        d="m 0,0 c 23.345,0 42.27,-93.282 42.27,-116.63 0,-23.345 -18.925,-42.27 -42.27,-42.27 -23.346,0 -42.272,18.925 -42.272,42.27 C -42.272,-93.282 -23.346,0 0,0"
                        style="fill:#82970a;fill-opacity:1;fill-rule:evenodd;stroke:none"
                        id="path3338" />
                </g>
                <g
                    id="g3340"
                    transform="translate(77.4473,252.4502)">
                    <path
                        d="m 0,0 4.793,-61.446 4.794,-61.443 H 0 -9.588 l 4.793,61.443 z"
                        style="fill:#bd591e;fill-opacity:1;fill-rule:evenodd;stroke:none"
                        id="path3342" />
                </g>
                <g
                    id="g3344"
                    transform="translate(77.4473,320.2246)">
                    <path
                        d="m 0,0 c 23.345,0 42.27,-93.282 42.27,-116.63 0,-7.295 -1.847,-14.157 -5.101,-20.147 1.327,4.1 2.046,8.474 2.046,13.018 0,23.345 -18.926,116.628 -42.271,116.628 -7.128,0 -13.842,-8.702 -19.732,-21.447 C -16.212,-12.054 -8.393,0 0,0"
                        style="fill:#adc718;fill-opacity:1;fill-rule:evenodd;stroke:none"
                        id="path3346" />
                </g>
                <g
                    id="g3348"
                    transform="translate(661.8486,198.5332)">
                    <path
                        d="M 0,0 -661.976,-75.72 V -199.685 H 0 Z"
                        style="fill:#a5bd1b;fill-opacity:1;fill-rule:evenodd;stroke:none"
                        id="path3350" />
                </g>
                <g
                    id="g3352"
                    transform="translate(661.8486,200.6084)">
                    <path
                        d="M 0,0 -661.976,-75.721 V -109.95 L 0,-7.392 Z"
                        style="fill:#c6db4c;fill-opacity:1;fill-rule:evenodd;stroke:none"
                        id="path3354" />
                </g>
                <g
                    id="g3356"
                    transform="translate(150.8022,380.52)">
                    <path
                        d="m 0,0 c 32.037,0 58.009,-128.014 58.009,-160.052 0,-32.038 -25.972,-58.011 -58.009,-58.011 -32.038,0 -58.01,25.973 -58.01,58.011 C -58.01,-128.014 -32.038,0 0,0"
                        style="fill:#5c6b08;fill-opacity:1;fill-rule:evenodd;stroke:none"
                        id="path3358" />
                </g>
                <g
                    id="g3360"
                    transform="translate(150.8022,287.5098)">
                    <path
                        d="m 0,0 6.579,-84.32 6.578,-84.323 H 0 -13.158 l 6.579,84.323 z"
                        style="fill:#bd591e;fill-opacity:1;fill-rule:evenodd;stroke:none"
                        id="path3362" />
                </g>
                <g
                    id="g3364"
                    transform="translate(150.8022,380.52)">
                    <path
                        d="m 0,0 c 32.037,0 58.009,-128.014 58.009,-160.052 0,-10.012 -2.536,-19.431 -7,-27.651 1.82,5.628 2.806,11.632 2.806,17.866 0,32.038 -25.97,160.052 -58.009,160.052 -9.782,0 -18.995,-11.943 -27.078,-29.433 C -22.249,-16.54 -11.517,0 0,0"
                        style="fill:#82970a;fill-opacity:1;fill-rule:evenodd;stroke:none"
                        id="path3366" />
                </g>
                <g
                    id="g3368"
                    transform="translate(565.3184,382.5942)">
                    <path
                        d="m 0,0 c -36.978,0 -66.954,-147.752 -66.954,-184.729 0,-36.978 29.976,-66.955 66.954,-66.955 36.979,0 66.955,29.977 66.955,66.955 C 66.955,-147.752 36.979,0 0,0"
                        style="fill:#5c6b08;fill-opacity:1;fill-rule:evenodd;stroke:none"
                        id="path3370" />
                </g>
                <g
                    id="g3372"
                    transform="translate(565.3184,275.2451)">
                    <path
                        d="m 0,0 -7.594,-97.323 -7.592,-97.322 H 0 15.187 l -7.592,97.322 z"
                        style="fill:#bd591e;fill-opacity:1;fill-rule:evenodd;stroke:none"
                        id="path3374" />
                </g>
                <g
                    id="g3376"
                    transform="translate(565.3184,382.5942)">
                    <path
                        d="m 0,0 c -36.978,0 -66.954,-147.752 -66.954,-184.729 0,-11.557 2.927,-22.427 8.081,-31.915 -2.102,6.496 -3.241,13.425 -3.241,20.62 0,36.979 29.976,184.731 66.955,184.731 11.289,0 21.924,-13.786 31.255,-33.972 C 25.679,-19.091 13.292,0 0,0"
                        style="fill:#82970a;fill-opacity:1;fill-rule:evenodd;stroke:none"
                        id="path3378" />
                </g>
                <g
                    id="g3380"
                    transform="translate(-0.126,161.1924)">
                    <path
                        d="m 0,0 661.975,-75.721 v -86.623 H 0 Z"
                        style="fill:#94ab13;fill-opacity:1;fill-rule:evenodd;stroke:none"
                        id="path3382" />
                </g>
                <g
                    id="g3384"
                    transform="translate(-0.126,163.2676)">
                    <path
                        d="m 0,0 661.975,-75.723 v -31.118 L 0,-7.392 Z"
                        style="fill:#adc718;fill-opacity:1;fill-rule:evenodd;stroke:none"
                        id="path3386" />
                </g>
                <g
                    id="g3388"
                    transform="translate(-0.126,623.4331)">
                    <path
                        d="M 0,0 661.975,-43.75 V -86.093 L 0,-20.746 Z"
                        style="fill:#d5f4fa;fill-opacity:1;fill-rule:evenodd;stroke:none"
                        id="path3390" />
                </g>
                <g
                    id="g3392"
                    transform="translate(-0.126,531.1162)">
                    <path
                        d="M 0,0 320.182,-19.708 0,-33.192 Z"
                        style="fill:#d5f4fa;fill-opacity:1;fill-rule:evenodd;stroke:none"
                        id="path3394" />
                </g>
                <g
                    id="g3396"
                    transform="translate(661.8486,517.6318)">
                    <path
                        d="M 0,0 -661.976,74.684 V 26.969 L 0,-13.484 Z"
                        style="fill:#d5f4fa;fill-opacity:1;fill-rule:evenodd;stroke:none"
                        id="path3398" />
                </g>
                <g
                    id="g3400"
                    transform="translate(661.8486,494.8135)">
                    <path
                        d="M 0,0 -209.022,11.313 0,-33.193 Z"
                        style="fill:#d5f4fa;fill-opacity:1;fill-rule:evenodd;stroke:none"
                        id="path3402" />
                </g>
                <g
                    id="g3404"
                    transform="translate(-0.127,60.832)">
                    <path
                        d="M 0,0 433.243,-61.983 H 10e-4 Z"
                        style="fill:#82970a;fill-opacity:1;fill-rule:evenodd;stroke:none"
                        id="path3406" />
                </g>
            </g>
        </g>
    </g>
</svg>