<svg xmlns="http://www.w3.org/2000/svg" x="0px" y="0px" width="100" height="100" viewBox="0 0 100 100">
<g><circle cx="14" cy="29" r="2" fill="#ee3e54"></circle><circle cx="78" cy="13" r="1" fill="#f1bc19"></circle><circle cx="51" cy="50" r="37" fill="#fce0a2"></circle><circle cx="84" cy="15" r="4" fill="#f1bc19"></circle><circle cx="88" cy="24" r="2" fill="#ee3e54"></circle><circle cx="82" cy="76" r="2" fill="#fbcd59"></circle><circle cx="16" cy="63" r="4" fill="#fbcd59"></circle><circle cx="26" cy="87" r="2" fill="#ee3e54"></circle><circle cx="20.5" cy="54.5" r="2.5" fill="#fff"></circle><circle cx="22" cy="67" r="1" fill="#f1bc19"></circle><circle cx="81" cy="34" r="1" fill="#fff"></circle><g><path fill="#ee3e54" d="M51,64.5c-0.618,0-1.199-0.241-1.635-0.677c-0.901-0.902-0.901-2.369,0-3.27 c0.437-0.437,1.017-0.677,1.635-0.677c0.617,0,1.198,0.24,1.635,0.677c0.437,0.437,0.678,1.018,0.678,1.635 s-0.241,1.198-0.678,1.635C52.198,64.26,51.617,64.5,51,64.5z M59.618,60.93c-1.275,0-2.313-1.037-2.313-2.313 s1.037-2.313,2.313-2.313s2.313,1.037,2.313,2.313S60.894,60.93,59.618,60.93z M42.382,60.93c-1.275,0-2.313-1.037-2.313-2.313 s1.038-2.313,2.313-2.313s2.313,1.037,2.313,2.313S43.657,60.93,42.382,60.93z M63.188,52.313c-0.617,0-1.198-0.24-1.635-0.677 c-0.437-0.437-0.678-1.018-0.678-1.635s0.241-1.198,0.678-1.635c0.437-0.437,1.018-0.677,1.635-0.677s1.198,0.24,1.635,0.677 C65.259,48.802,65.5,49.382,65.5,50s-0.241,1.198-0.678,1.635C64.386,52.072,63.805,52.313,63.188,52.313z M38.813,52.313 c-0.618,0-1.199-0.241-1.635-0.677c-0.901-0.902-0.901-2.369,0-3.27c0.437-0.437,1.018-0.677,1.635-0.677 s1.199,0.241,1.635,0.677c0.901,0.902,0.901,2.369,0,3.27C40.011,52.072,39.43,52.313,38.813,52.313z M59.618,43.695 c-1.275,0-2.313-1.037-2.313-2.313s1.037-2.313,2.313-2.313s2.313,1.037,2.313,2.313S60.894,43.695,59.618,43.695z M42.382,43.695c-1.275,0-2.313-1.037-2.313-2.313s1.038-2.313,2.313-2.313s2.313,1.037,2.313,2.313S43.657,43.695,42.382,43.695 z M51,40.125c-0.618,0-1.199-0.241-1.635-0.677c-0.901-0.902-0.901-2.369,0-3.27C49.801,35.741,50.382,35.5,51,35.5 c0.617,0,1.198,0.24,1.635,0.677c0.437,0.437,0.678,1.018,0.678,1.635s-0.241,1.198-0.678,1.635 C52.198,39.885,51.617,40.125,51,40.125z"></path><path fill="#472b29" d="M51,36c0.484,0,0.939,0.188,1.282,0.531c0.342,0.342,0.531,0.797,0.531,1.282 s-0.189,0.939-0.531,1.282c-0.342,0.342-0.798,0.531-1.282,0.531s-0.939-0.188-1.282-0.531c-0.342-0.342-0.531-0.797-0.531-1.282 s0.189-0.939,0.531-1.282C50.061,36.188,50.516,36,51,36 M59.618,39.57c0.999,0,1.813,0.813,1.813,1.813 s-0.813,1.813-1.813,1.813s-1.813-0.813-1.813-1.813S58.618,39.57,59.618,39.57 M42.382,39.57c0.999,0,1.813,0.813,1.813,1.813 s-0.813,1.813-1.813,1.813s-1.813-0.813-1.813-1.813S41.383,39.57,42.382,39.57 M63.188,48.188c0.484,0,0.939,0.188,1.282,0.531 C64.811,49.061,65,49.516,65,50s-0.189,0.939-0.531,1.282c-0.342,0.342-0.798,0.531-1.282,0.531s-0.939-0.188-1.282-0.531 c-0.342-0.342-0.531-0.797-0.531-1.282s0.189-0.939,0.531-1.282C62.248,48.376,62.703,48.188,63.188,48.188 M38.813,48.188 c0.484,0,0.939,0.188,1.282,0.531c0.342,0.342,0.531,0.797,0.531,1.282s-0.189,0.939-0.531,1.282 c-0.342,0.342-0.798,0.531-1.282,0.531s-0.939-0.188-1.282-0.531C37.189,50.939,37,50.484,37,50s0.189-0.939,0.531-1.282 C37.873,48.376,38.328,48.188,38.813,48.188 M59.618,56.805c0.999,0,1.813,0.813,1.813,1.813s-0.813,1.813-1.813,1.813 s-1.813-0.813-1.813-1.813S58.618,56.805,59.618,56.805 M42.382,56.805c0.999,0,1.813,0.813,1.813,1.813 s-0.813,1.813-1.813,1.813s-1.813-0.813-1.813-1.813S41.383,56.805,42.382,56.805 M51,60.375c0.484,0,0.939,0.188,1.282,0.531 c0.342,0.342,0.531,0.797,0.531,1.282s-0.189,0.939-0.531,1.282C51.939,63.812,51.484,64,51,64s-0.939-0.188-1.282-0.531 c-0.342-0.342-0.531-0.797-0.531-1.282s0.189-0.939,0.531-1.282C50.061,60.563,50.516,60.375,51,60.375 M51,35 c-0.72,0-1.44,0.275-1.989,0.824c-1.098,1.098-1.098,2.879,0,3.978C49.56,40.35,50.28,40.625,51,40.625s1.44-0.275,1.989-0.824 c1.098-1.098,1.098-2.879,0-3.978C52.44,35.275,51.72,35,51,35L51,35z M59.618,38.57c-1.553,0-2.813,1.259-2.813,2.813 c0,1.553,1.259,2.813,2.813,2.813c1.553,0,2.813-1.259,2.813-2.813C62.43,39.829,61.171,38.57,59.618,38.57L59.618,38.57z M42.382,38.57c-1.553,0-2.813,1.259-2.813,2.813c0,1.553,1.259,2.813,2.813,2.813c1.553,0,2.813-1.259,2.813-2.813 C45.195,39.829,43.935,38.57,42.382,38.57L42.382,38.57z M63.188,47.188c-0.72,0-1.44,0.275-1.989,0.824 c-1.098,1.098-1.098,2.879,0,3.978c0.549,0.549,1.269,0.824,1.989,0.824s1.44-0.275,1.989-0.824c1.098-1.098,1.098-2.879,0-3.978 C64.627,47.462,63.907,47.188,63.188,47.188L63.188,47.188z M38.813,47.188c-0.72,0-1.44,0.275-1.989,0.824 c-1.098,1.098-1.098,2.879,0,3.978c0.549,0.549,1.269,0.824,1.989,0.824s1.44-0.275,1.989-0.824c1.098-1.098,1.098-2.879,0-3.978 C40.252,47.462,39.532,47.188,38.813,47.188L38.813,47.188z M59.618,55.805c-1.553,0-2.813,1.259-2.813,2.813 c0,1.554,1.259,2.813,2.813,2.813c1.553,0,2.813-1.259,2.813-2.813C62.43,57.064,61.171,55.805,59.618,55.805L59.618,55.805z M42.382,55.805c-1.553,0-2.813,1.259-2.813,2.813c0,1.554,1.259,2.813,2.813,2.813c1.553,0,2.813-1.259,2.813-2.813 C45.195,57.064,43.935,55.805,42.382,55.805L42.382,55.805z M51,59.375c-0.72,0-1.44,0.275-1.989,0.824 c-1.098,1.098-1.098,2.879,0,3.978C49.56,64.725,50.28,65,51,65s1.44-0.275,1.989-0.824c1.098-1.098,1.098-2.879,0-3.978 C52.44,59.65,51.72,59.375,51,59.375L51,59.375z"></path></g><g><path fill="#ee3e54" d="M67.961,39.045c-1.604,0-3.113-0.625-4.247-1.759c-1.962-1.962-2.302-5.03-0.892-7.364 c3.41,2.011,6.246,4.847,8.256,8.256C70.142,38.747,69.075,39.045,67.961,39.045L67.961,39.045z"></path><path fill="#472b29" d="M63.098,30.911c2.819,1.789,5.204,4.174,6.992,6.993c-0.665,0.291-1.385,0.441-2.13,0.441 c-1.417,0-2.75-0.552-3.752-1.554C62.646,35.229,62.249,32.872,63.098,30.911 M62.607,28.993 c-1.986,2.633-1.787,6.39,0.612,8.789c1.31,1.31,3.026,1.964,4.742,1.964c1.426,0,2.852-0.451,4.047-1.353 C69.821,34.444,66.555,31.179,62.607,28.993L62.607,28.993z"></path><path fill="#ee3e54" d="M73.556,55.837C70.909,55.183,68.98,52.774,68.98,50s1.929-5.183,4.575-5.837 C74.05,46.073,74.3,48.034,74.3,50S74.05,53.927,73.556,55.837z"></path><path fill="#472b29" d="M73.052,45.057C73.416,46.682,73.6,48.339,73.6,50s-0.184,3.318-0.548,4.943 C71.065,54.157,69.68,52.209,69.68,50S71.065,45.843,73.052,45.057 M74.06,43.353c-3.265,0.458-5.78,3.255-5.78,6.647 s2.515,6.188,5.78,6.647C74.668,54.535,75,52.307,75,50S74.668,45.465,74.06,43.353L74.06,43.353z"></path><path fill="#ee3e54" d="M51,32.02c-2.773,0-5.183-1.928-5.837-4.576C47.074,26.95,49.035,26.7,51,26.7 c1.966,0,3.926,0.25,5.837,0.744C56.183,30.091,53.773,32.02,51,32.02z"></path><path fill="#472b29" d="M51,27.4c1.66,0,3.317,0.184,4.943,0.549C55.157,29.936,53.209,31.32,51,31.32 s-4.157-1.385-4.943-3.372C47.683,27.584,49.34,27.4,51,27.4 M51,26c-2.307,0-4.535,0.333-6.647,0.94 c0.458,3.265,3.255,5.78,6.647,5.78s6.189-2.515,6.647-5.78C55.535,26.333,53.307,26,51,26L51,26z"></path><path fill="#ee3e54" d="M62.822,70.078c-1.41-2.335-1.07-5.403,0.892-7.364c1.134-1.134,2.643-1.759,4.247-1.759 c1.114,0,2.18,0.298,3.117,0.867C69.068,65.231,66.232,68.067,62.822,70.078z"></path><path fill="#472b29" d="M67.961,61.655c0.745,0,1.465,0.15,2.13,0.441c-1.789,2.819-4.173,5.205-6.992,6.993 c-0.85-1.96-0.452-4.317,1.111-5.88C65.211,62.207,66.543,61.655,67.961,61.655 M67.961,60.255 c-1.716,0-3.431,0.654-4.742,1.964c-2.399,2.399-2.598,6.155-0.612,8.789c3.948-2.186,7.214-5.452,9.4-9.4 C70.813,60.706,69.386,60.255,67.961,60.255L67.961,60.255z"></path><g><path fill="#ee3e54" d="M28.444,55.837C27.95,53.927,27.7,51.967,27.7,50s0.25-3.927,0.744-5.837 c2.647,0.654,4.576,3.064,4.576,5.837S31.092,55.183,28.444,55.837z"></path><path fill="#472b29" d="M28.948,45.057c1.987,0.786,3.372,2.734,3.372,4.943s-1.385,4.157-3.372,4.943 C28.584,53.318,28.4,51.661,28.4,50S28.584,46.682,28.948,45.057 M27.94,43.353C27.332,45.465,27,47.693,27,50 s0.332,4.535,0.94,6.647c3.265-0.458,5.78-3.255,5.78-6.647S31.205,43.812,27.94,43.353L27.94,43.353z"></path></g><g><path fill="#ee3e54" d="M51,73.3c-1.965,0-3.926-0.25-5.837-0.744c0.654-2.647,3.064-4.576,5.837-4.576 s5.183,1.929,5.837,4.576C54.926,73.05,52.966,73.3,51,73.3z"></path><path fill="#472b29" d="M51,68.68c2.209,0,4.157,1.385,4.943,3.372C54.317,72.416,52.66,72.6,51,72.6 s-3.317-0.184-4.943-0.549C46.843,70.064,48.791,68.68,51,68.68 M51,67.28c-3.392,0-6.189,2.515-6.647,5.78 C46.465,73.667,48.693,74,51,74s4.535-0.333,6.647-0.94C57.189,69.795,54.392,67.28,51,67.28L51,67.28z"></path></g><g><path fill="#ee3e54" d="M39.178,70.078c-3.409-2.011-6.245-4.847-8.256-8.256c0.937-0.569,2.003-0.867,3.118-0.867 c1.604,0,3.113,0.625,4.247,1.759C40.248,64.675,40.587,67.743,39.178,70.078z"></path><path fill="#472b29" d="M34.039,61.655c1.417,0,2.75,0.552,3.752,1.554c1.562,1.563,1.96,3.92,1.111,5.88 c-2.819-1.789-5.204-4.174-6.992-6.993C32.575,61.805,33.295,61.655,34.039,61.655 M34.039,60.255 c-1.426,0-2.852,0.451-4.047,1.353c2.186,3.948,5.452,7.214,9.4,9.4c1.986-2.633,1.787-6.39-0.612-8.789 C37.471,60.909,35.756,60.255,34.039,60.255L34.039,60.255z"></path></g><g><path fill="#ee3e54" d="M34.039,39.045c-1.114,0-2.181-0.298-3.118-0.867c2.011-3.41,4.847-6.246,8.256-8.256 c1.41,2.335,1.07,5.403-0.892,7.364C37.152,38.421,35.644,39.045,34.039,39.045C34.039,39.045,34.04,39.045,34.039,39.045z"></path><path fill="#472b29" d="M38.902,30.911c0.85,1.96,0.452,4.317-1.111,5.88c-1.002,1.002-2.335,1.554-3.752,1.554 c-0.745,0-1.465-0.15-2.13-0.441C33.698,35.085,36.083,32.7,38.902,30.911 M39.393,28.993c-3.948,2.186-7.214,5.452-9.4,9.4 c1.195,0.901,2.621,1.353,4.047,1.353c1.716,0,3.431-0.654,4.742-1.964C41.18,35.382,41.379,31.626,39.393,28.993L39.393,28.993 z"></path></g></g><g><path fill="#472b29" d="M52,79c-0.276,0-0.5-0.224-0.5-0.5c0-0.276,0.224-0.5,0.5-0.5c3.65,0,7.192-0.716,10.525-2.128 c5.473-2.319,10.095-6.453,13.017-11.642c0.137-0.242,0.442-0.324,0.681-0.19c0.241,0.135,0.326,0.44,0.19,0.681 c-3.029,5.38-7.822,9.667-13.497,12.072C59.458,78.257,55.785,79,52,79z"></path></g><g><path fill="#472b29" d="M77.716,61.264c-0.06,0-0.119-0.011-0.179-0.033c-0.258-0.098-0.387-0.387-0.288-0.645 c0.189-0.497,0.364-1.001,0.523-1.512c0.481-1.537,0.825-3.129,1.022-4.731c0.034-0.274,0.273-0.469,0.558-0.435 c0.273,0.034,0.469,0.283,0.435,0.557c-0.205,1.662-0.562,3.313-1.06,4.908c-0.167,0.53-0.348,1.054-0.545,1.57 C78.106,61.141,77.917,61.264,77.716,61.264z"></path></g></g>
</svg>